<svg width="53" height="51" viewBox="0 0 53 51" fill="none" xmlns="http://www.w3.org/2000/svg">
<path d="M33.925 10C31.054 10 28.2985 11.3684 26.5 13.5308C24.7015 11.3684 21.946 10 19.075 10C13.993 10 10 14.0883 10 19.2916C10 25.6774 15.61 30.8807 24.1075 38.7869L26.5 41L28.8925 38.77C37.39 30.8807 43 25.6774 43 19.2916C43 14.0883 39.007 10 33.925 10ZM26.665 36.2698L26.5 36.4387L26.335 36.2698C18.481 28.9886 13.3 24.1738 13.3 19.2916C13.3 15.9128 15.775 13.3787 19.075 13.3787C21.616 13.3787 24.091 15.0512 24.9655 17.3657H28.051C28.909 15.0512 31.384 13.3787 33.925 13.3787C37.225 13.3787 39.7 15.9128 39.7 19.2916C39.7 24.1738 34.519 28.9886 26.665 36.2698Z" fill="#FB737D"/>
</svg>
